<svg viewBox="-103.62162162162167 229.95000000000005 1189.7297297297298 1130.5875" xmlns="http://www.w3.org/2000/svg" overflow="visible" xmlns:xlink="http://www.w3.org/1999/xlink" width="1189.7297297297298px" height="1130.5875px"><g id="Master/Character/Bust" stroke="none" stroke-width="1" fill="none" fill-rule="evenodd"><g id="Body" transform="translate(147.000000, 639.000000) scale(1 1)"><g id="Body/Striped Pocket Tee" stroke="none" stroke-width="1" fill="none" fill-rule="evenodd"><path d="M409.155915,-29.3036301 C462.811915,-33.1458889 536.375915,-22.5103323 551.894915,38.6694023 C556.707915,60.9318722 566.190915,70.703246 582.122915,85.2631737 C683.250915,214.699329 330.413915,236.455105 312.275915,110.238356 C274.063915,124.155404 232.467915,127.102438 194.232915,141.16869 C173.495915,148.829174 154.691915,160.916718 136.672915,173.555016 C63.1939152,225.743444 -9.24508477,279.421912 -82.4620848,331.984853 C-54.1290848,345.03171 -0.261084768,394.845889 -22.2110848,428.319704 C-27.3242969,434.840143 -34.9142914,439.335199 -41.6283138,444.101236 L-45.1687781,446.629093 C-52.785366,452.087171 -65.6069598,461.390216 -72.6970848,466.445886 L-74.004664,467.397855 C-74.5173512,467.76888 -75.0957318,468.185561 -75.6180848,468.558778 C-24.4880848,543.31209 35.3509152,612.286493 101.726915,673.868778 C107.378915,679.12297 105.063915,690.871049 96.8839152,692.238921 L87.138673,693.669108 C55.6720871,698.252041 23.6076027,702.376734 -8.10208477,699.888391 C-38.9850848,696.528792 -57.5950848,669.191377 -78.7070848,649.388273 C-120.866085,606.296294 -160.111085,560.330382 -195.857085,511.771922 L-196.60139,510.747462 C-207.726668,495.544417 -222.49337,480.006897 -223.574085,460.375577 C-225.545085,454.473499 -220.358085,446.015924 -215.374085,441.992417 L-213.672568,439.536699 C-186.941163,401.091737 -156.687626,364.016131 -118.784085,336.174588 C-118.925085,332.02591 -117.007085,327.664941 -113.209085,324.916179 L45.1989152,210.28028 L45.1989152,210.28028 C86.0709152,182.152783 124.059915,149.09654 168.361915,126.383454 C213.661915,104.572602 264.782915,103.715429 311.205915,85.5125149 C312.189915,72.3925581 339.772915,69.043975 338.901915,71.0697476 C368.004915,53.5037055 382.986915,32.6030996 387.607915,13.3938085 C392.227915,-5.81548265 386.485915,-23.3334589 409.155915,-29.3036301 Z M800.886615,382.266472 C849.868615,308.564599 896.557615,390.109206 916.949615,439.256472 C941.042615,506.514526 891.148615,589.248762 858.916615,647.23112 C847.044615,663.333159 831.430615,697.296643 810.504615,699.759014 C757.784615,699.543719 704.991615,695.831638 652.239615,694.726125 C618.177615,686.275559 665.967615,635.088501 698.979615,653.785091 C708.981615,657.527212 713.978615,668.882754 723.731615,672.52574 C727.285093,673.284344 727.530171,671.699339 728.975642,668.160703 L729.180615,667.666089 C731.757615,661.542708 734.256615,655.386282 736.794615,649.246879 C758.271615,596.357491 780.976615,543.933741 803.552615,491.533022 C808.375615,480.156451 801.611615,470.782621 792.818615,464.011354 C786.085615,458.469769 757.142615,444.940252 784.412615,450.895402 C773.911615,426.522043 786.529615,401.783184 800.886615,382.266472 Z M679.277615,281.376287 C683.993615,280.787481 690.050615,285.539986 690.776615,290.144288 C696.792247,328.309881 690.089775,366.042673 682.05474,403.376481 L680.575693,410.212536 C677.611883,423.829453 674.300184,437.713751 666.908615,449.648596 C659.365615,461.829267 647.954615,471.008831 634.854615,476.589469 C592.829615,493.33639 540.565615,476.774722 509.650615,445.46487 C489.872615,418.374792 507.259615,384.343214 510.578615,354.651577 C507.441115,346.651204 506.284939,337.397266 504.470657,329.148238 L504.249615,328.163323 L497.200615,297.391206 C495.646615,290.603917 500.592615,281.316205 508.720615,282.248481 C565.392615,288.748377 622.674615,288.455977 679.277615,281.376287 Z" id="Skin" fill="#edb98a"/><rect id="Top" fill="#FDEA6B" x="493.997" y="283" width="199" height="200"/><path d="M877.197115,372.623817 C877.027115,371.864817 877.937115,371.283817 878.527115,371.854817 C888.497115,381.463817 895.537115,393.743817 903.267115,405.123817 C910.627115,415.963817 918.637115,426.383817 924.127115,438.344817 C929.227115,449.463817 932.517115,460.743817 933.497115,472.963817 C934.477115,485.094817 933.207115,497.254817 931.067115,509.203817 C926.857115,532.743817 917.857115,555.033817 907.977115,576.684817 C898.371346,597.731932 887.517426,618.179935 876.055432,638.256409 L871.947602,645.423996 C866.936819,654.150651 861.870961,662.860894 856.447115,671.314817 C849.697115,681.834817 843.537115,692.694817 834.637115,701.474817 C828.317115,707.724817 816.407115,701.474817 819.287115,692.543817 C820.537115,688.654817 821.517115,684.993817 823.457115,681.383817 C824.927115,678.633817 826.587115,675.963817 828.147115,673.254817 C831.267115,667.834817 834.357115,662.394817 837.477115,656.974817 C844.027115,645.584817 850.927115,634.404817 857.417115,622.974817 C868.677115,603.154817 879.307115,582.963817 888.707115,562.184817 L889.813425,559.732124 C898.462621,540.490155 906.658748,520.559062 910.457115,499.743817 C914.457115,477.814817 910.877115,457.144817 903.087115,436.533817 C899.057115,425.873817 894.527115,415.453817 889.817115,405.073817 L888.911837,403.091322 C884.363131,393.183778 879.540865,383.330067 877.197115,372.623817 Z M393.047015,-6.69668319 C393.137015,-7.08568319 393.797015,-7.11568319 393.857015,-6.69668319 C396.657015,11.9253168 390.427015,31.6243168 380.277015,47.1143168 C374.737015,55.5743168 367.907015,63.2143168 359.857015,69.3543168 L359.230192,69.8274781 C351.006609,75.9752924 339.895265,81.9120918 329.687015,77.9253168 C329.367015,77.8033168 329.067015,77.6643168 328.787015,77.5053168 C329.937015,79.2843168 330.997015,81.1543168 332.077015,83.0243168 C335.287015,88.5943168 338.167015,94.3643168 341.297015,99.9843168 C346.897015,110.034317 353.567015,119.024317 361.997015,126.894317 C395.706515,158.357507 443.039405,165.83569 487.490899,165.477551 L490.630939,165.447834 C510.156607,165.310446 535.693215,166.307247 550.767015,152.175317 C558.867015,144.585317 563.327015,133.794317 567.357015,123.664317 C571.317015,113.734317 574.027015,103.484317 577.317015,93.3843168 C570.447015,88.6753168 564.147015,82.9253168 559.197015,76.2043168 C554.037015,69.2043168 550.137015,61.3243168 547.887015,52.9143168 L547.555129,51.6578074 C545.815155,44.9514488 544.065815,36.0799168 546.867015,29.7443168 C547.187015,29.0143168 548.387015,29.0643168 548.727015,29.7443168 C550.237015,32.7743168 550.527015,36.1943168 551.457015,39.4343168 C552.537015,43.2043168 553.757015,46.9543168 555.367015,50.5243168 C558.477015,57.4443168 562.587015,64.0243168 567.517015,69.7843168 C571.587015,74.5533168 575.997015,78.9343168 581.037015,82.6143168 C584.007015,77.4843168 590.897015,76.7943168 596.667015,78.4843168 C604.40139,80.7436918 612.030296,83.6446684 619.487816,86.7093412 L620.977015,87.3243168 C628.347015,90.3843168 636.677015,93.1943168 643.577015,97.3643168 C647.767015,99.3643168 651.787015,101.374317 655.567015,103.154317 C674.401682,112.002317 692.957593,121.390406 711.429877,130.960847 L715.387015,133.014317 C723.127015,137.044317 730.797015,141.114317 737.527015,146.734317 C744.377015,152.454317 749.697015,160.274317 754.697015,167.604317 C766.127015,184.364317 776.897015,201.604317 788.197015,218.454317 C811.017015,252.454317 833.837015,286.454317 856.787015,320.374317 C862.337015,328.585317 868.597015,336.594317 873.577015,345.154317 C878.347015,353.335317 878.217015,361.734317 877.287015,370.864317 L877.112791,372.541218 C875.329658,389.288531 872.263789,405.373026 862.867015,419.734317 C848.077015,442.314317 824.777015,456.374317 800.127015,466.053317 C803.137015,468.294317 805.967015,470.714317 809.557015,472.255317 C815.077015,474.614317 820.967015,475.835317 826.937015,476.324317 C833.307015,476.835317 840.487015,475.244317 845.647015,479.574317 C847.717015,481.303317 847.777015,485.464317 845.647015,487.194317 C840.686231,491.243336 834.274082,490.082821 828.22925,489.404398 L827.867015,489.364317 C822.257015,488.744317 816.727015,487.704317 811.457015,485.644317 C810.157015,485.133317 808.867015,484.564317 807.617015,483.934317 C807.657015,484.044317 807.677015,484.175317 807.657015,484.314317 C806.75658,491.203882 804.805219,497.718116 802.744374,504.302373 L801.437015,508.474317 C798.777015,516.994317 796.097015,525.494317 793.337015,533.994317 C788.084708,550.175855 782.363761,566.204021 776.622495,582.212523 L771.667281,596.026011 C766.576937,610.197411 761.42264,624.349129 755.727015,638.284317 C752.207015,646.883317 748.667015,655.484317 745.137015,664.074317 C741.687015,672.464317 738.817015,681.524317 734.537015,689.514317 C731.017015,696.094317 721.417015,691.383317 722.957015,684.624317 C724.977015,675.755317 728.787015,666.954317 731.697015,658.324317 C734.657015,649.564317 737.557015,640.794317 740.567015,632.053317 C745.801682,616.870183 751.599682,601.889099 757.427226,586.921935 L763.202769,572.084887 C768.868495,557.548169 774.600861,543.024394 780.727015,528.675317 L781.396513,527.102616 C787.761976,512.093488 794.332778,495.216215 805.897015,483.585317 C806.047015,483.425317 806.257015,483.344317 806.467015,483.324317 C803.627015,481.784317 800.967015,479.914317 798.627015,477.704317 L798.512974,477.589145 C797.588064,476.609923 793.767015,471.78434 792.537015,468.894317 C790.937015,469.464317 789.337015,470.014317 787.737015,470.553317 C784.947015,471.494317 782.637015,470.814317 781.007015,469.324317 L777.902139,471.245419 C774.582782,473.272278 771.013682,475.195832 767.347015,475.294317 C762.727015,475.414317 759.097015,472.864317 756.627015,469.104317 C754.407015,465.744317 753.087015,462.114317 750.277015,459.104317 C747.514349,456.14565 744.316126,453.648672 741.048215,451.264591 L737.196372,448.462084 C730.132489,443.305638 723.284435,438.095285 717.597015,431.284317 C714.737015,427.844317 710.907015,423.764317 709.167015,419.633317 C708.827015,418.835317 708.617015,418.085317 708.577015,417.354317 C708.197015,419.934317 707.807015,422.524317 707.417015,425.104317 C701.957015,461.414317 697.547015,497.974317 696.137015,534.694317 C695.447015,552.803317 695.137015,570.934317 695.947015,589.053317 C696.347015,598.104317 697.007015,607.144317 697.917015,616.164317 C698.367015,620.684317 698.837015,625.194317 699.387015,629.694317 L699.513975,630.736621 C699.673015,632.115597 699.777015,633.449517 699.657015,634.714317 C704.057015,636.883317 706.587015,642.364317 708.347015,646.644317 C709.687015,649.904317 708.647015,653.074317 706.487015,655.364317 C709.067015,657.714317 711.367015,660.474317 713.297015,663.633317 C713.687015,664.274317 712.847015,664.774317 712.347015,664.374317 C709.177015,661.854317 705.767015,659.784317 702.207015,658.194317 C700.337015,658.904317 698.297015,659.094317 696.417015,658.574317 C694.377015,658.014317 692.617015,656.654317 691.347015,654.925317 C681.237015,653.264317 670.727015,655.294317 661.627015,661.624317 C659.737015,662.944317 658.027015,664.434317 656.397015,666.053317 C656.117015,666.335317 655.827015,666.694317 655.537015,667.044317 L657.522263,667.807086 C658.34477,668.118807 659.019872,668.362888 659.277015,668.414317 C661.010349,668.76765 662.770349,668.956539 664.530349,669.108391 L667.167015,669.324317 C677.297015,670.164317 687.397015,670.444317 696.817015,674.684317 C698.797015,675.574317 698.107015,678.624317 696.237015,679.133317 C689.358349,680.999983 682.531949,680.855255 675.530165,680.3561 L674.027015,680.244317 C667.517015,679.744317 660.527015,679.774317 654.177015,677.974317 C655.697015,682.133317 653.627015,687.564317 647.277015,688.414317 C628.207015,690.954317 609.017015,689.755317 589.927015,688.074317 C570.647015,686.374317 551.377015,684.764317 532.047015,683.755317 C469.520632,680.465913 406.898423,681.097396 344.315972,681.99043 L308.950336,682.502518 C280.746683,682.900224 252.53808,683.210047 224.335253,682.993766 L211.134046,682.870739 C205.55475,682.816637 199.972523,682.748766 194.399574,682.58485 L191.057015,682.474317 C184.417015,682.234317 175.627015,683.234317 169.857015,679.303317 C165.097015,676.064317 164.037015,670.124317 166.907015,665.335317 C167.737015,663.954317 168.877015,662.724317 170.067015,661.524317 C172.507015,640.675317 173.877015,619.724317 175.277015,598.784317 C180.137015,525.505317 177.297015,452.604317 166.087015,380.064317 C136.007015,389.255317 106.387015,400.784317 77.5270152,413.154317 C61.9170152,419.844317 46.3870152,426.784317 31.0370152,434.064317 C17.0270152,440.714317 2.95701523,449.024317 -12.0129848,453.344317 C-13.3738181,454.551817 -15.2765091,455.126537 -16.9641407,454.590564 L-17.1829848,454.514317 L-17.1929848,454.514317 C-18.7329848,454.874317 -20.4429848,454.654317 -22.1229848,453.644317 C-22.4629848,453.438317 -22.8029848,453.231428 -23.1429848,453.018613 L-23.6529848,452.694317 C-28.9229848,449.374317 -34.2229848,445.284317 -37.9529848,440.284317 C-42.4829848,444.484317 -47.3529848,448.335317 -52.1429848,452.234317 C-57.3429848,456.474317 -62.5229848,460.734317 -67.6629848,465.034317 C-69.7029848,466.744317 -71.9529848,468.374317 -73.7529848,470.344317 L-74.0144662,470.633502 C-74.0563181,470.680539 -74.0963181,470.727317 -74.1329848,470.774317 C-66.3429848,475.814317 -59.5229848,483.464317 -53.4129848,490.114317 C-46.8519848,497.251317 -40.5177848,504.615927 -34.2354248,512.00913 L-28.1536199,519.180414 C14.8527152,569.964083 58.2990152,622.588717 113.977015,659.914317 C122.777015,665.814317 114.387015,680.184317 105.647015,674.154317 C89.1070152,662.764317 73.4570152,650.114317 58.4270152,636.803317 C32.0870152,613.494317 8.38701523,587.344317 -13.8029848,560.094317 C-25.0329848,546.303317 -35.9329848,532.175317 -46.6129848,517.954317 L-50.2377848,513.130717 C-55.0681848,506.697117 -59.8729848,500.244317 -64.4729848,493.644317 L-65.4354458,492.261062 C-69.4703236,486.43883 -73.7611329,479.898021 -76.3629848,473.194317 C-77.3629848,474.204317 -78.4929848,475.053317 -80.1429848,475.694317 C-82.9629848,476.794317 -86.4229848,474.484317 -87.1129848,471.734317 C-88.7929848,465.064317 -82.9929848,461.094317 -78.2729848,457.553317 C-72.5429848,453.274317 -66.7029848,449.144317 -60.8529848,445.034317 L-58.7633735,443.55693 C-51.4478241,438.36891 -44.0938543,433.043882 -36.1229848,428.944317 C-35.8829848,428.624317 -35.5929848,428.324317 -35.2629848,428.064317 C-34.8829848,427.764317 -34.5129848,427.474317 -34.1329848,427.184317 C-43.6529848,411.744317 -54.0929848,396.904317 -65.7429848,382.883317 C-74.5029848,372.335317 -83.8029848,362.264317 -93.6429848,352.724317 L-98.0633905,348.444377 C-104.749762,341.986961 -111.702076,335.437044 -119.122985,329.824317 L-121.446105,332.458237 C-124.548185,335.966717 -127.680985,339.448317 -130.992985,342.744317 C-137.512985,349.224317 -143.942985,355.835317 -150.342985,362.444317 C-160.971556,373.44146 -171.240128,384.776562 -181.476163,396.127827 L-186.592985,401.803317 C-197.252985,413.633317 -208.672985,425.244317 -218.362985,437.883317 L-218.846908,438.523069 C-223.077352,444.196912 -226.088803,450.476317 -224.122985,457.684317 C-222.226211,464.632704 -217.716533,470.79441 -213.829493,476.794793 L-213.442985,477.394317 C-197.572985,502.114317 -180.572985,526.204317 -162.362985,549.255317 C-125.892985,595.425317 -84.2929848,639.184317 -34.6529848,671.284317 C-27.7729848,675.734317 -34.2029848,686.794317 -41.0929848,682.294317 C-70.0829848,663.344317 -96.7129848,640.585317 -121.212985,616.144317 C-143.702985,593.714317 -164.082985,569.014317 -183.182985,543.664317 C-192.492985,531.294317 -201.412985,518.664317 -209.962985,505.755317 C-218.252985,493.224317 -227.842985,480.335317 -233.852985,466.514317 C-237,459.244317 -238.162985,451.374317 -235.582985,443.714317 C-233.216924,436.674317 -228.537696,430.828513 -223.669835,425.328916 L-223.212985,424.814317 C-212.022985,412.244317 -200.632985,399.824317 -189.142985,387.524317 C-177.612985,375.184317 -165.552985,363.284317 -153.242985,351.734317 C-143.572985,342.644317 -133.492985,334.633317 -122.712985,327.214317 C-123.682985,326.524317 -124.652985,325.864317 -125.642985,325.224317 C-128.652985,323.264317 -129.412985,319.074317 -126.772985,316.414317 C-119.562985,309.133317 -111.252985,302.803317 -103.432985,296.175317 C-96.0829848,289.944317 -88.7329848,283.704317 -81.3829848,277.464317 C-66.4229848,264.784317 -51.4629848,252.094317 -36.5029848,239.404317 C-9.63298477,216.614317 17.0870152,193.664317 43.8670152,170.774317 C55.0336819,161.23265 66.3045152,151.809039 77.5464134,142.358808 L97.5196078,125.550243 L97.5196078,125.550243 L107.288428,117.348896 C112.293594,113.156793 117.405276,109.011273 123.097015,105.814317 C136.489407,98.2914907 152.590092,95.0368593 167.345368,91.0511675 L168.327015,90.7843168 C184.877015,86.2553168 201.517015,81.9943168 218.247015,78.1943168 C234.997015,74.3943168 251.817015,70.9343168 268.707015,67.8033168 C283.887015,64.9843168 299.427015,62.5643168 314.907015,62.2043168 C318.747015,60.7443168 323.567015,60.2343168 327.347015,61.7943168 C328.907015,62.4443168 330.537015,63.3943168 331.987015,64.5943168 C339.557015,61.9343168 347.027015,60.6643168 354.097015,56.1643168 C361.157015,51.6753168 367.407015,45.7743168 372.667015,39.2743168 C383.537015,25.8143168 389.227015,9.91431681 393.047015,-6.69668319 Z M567.057015,449.094317 C561.057015,448.675317 555.657015,451.154317 550.297015,453.794317 C553.317015,455.104317 556.337015,456.404317 559.357015,457.694317 L579.457015,466.274317 L579.457015,466.274317 C586.097015,469.104317 593.127015,471.564317 599.437015,475.053317 C599.887015,475.303317 600.247015,475.604317 600.517015,475.954317 C607.077015,471.755317 614.017015,468.005317 620.667015,464.014317 C622.187015,463.104317 623.717015,462.194317 625.247015,461.284317 C617.327015,463.934317 609.207015,465.264317 600.607015,462.774317 C589.137015,459.464317 579.177015,449.944317 567.057015,449.094317 Z M583.497015,428.974317 L582.419232,428.241619 C576.599472,424.249839 569.655251,419.118434 562.587015,422.704317 C559.257015,424.394317 556.527015,427.124317 553.247015,428.944317 C549.947015,430.784317 546.317015,432.194317 542.637015,433.044317 C536.527015,434.454317 529.527015,434.664317 522.957015,433.303317 L523.057015,442.184317 L523.057015,442.184317 C528.027015,444.234317 532.967015,446.335317 537.907015,448.454317 C541.114288,447.357953 544.201065,446.04068 547.446677,444.595609 L549.637015,443.614317 C555.887015,440.803317 562.197015,438.925317 569.107015,439.814317 C582.117015,441.484317 591.947015,451.154317 604.387015,454.374317 C619.637015,458.335317 633.397015,446.954317 647.807015,444.144317 C650.183015,443.676317 652.631915,443.402717 655.066235,443.359967 L655.877015,443.354317 L656.237015,443.144317 C659.337015,441.324317 663.977015,439.585317 666.137015,436.524317 C668.487015,433.204317 668.687015,427.644317 669.457015,423.744317 C669.537015,423.354317 669.617015,422.954317 669.687015,422.564317 C668.327015,422.564317 666.947015,422.633317 665.547015,422.894317 C661.147015,423.704317 657.007015,425.264317 652.907015,427.005317 C645.157015,430.294317 637.577015,434.044317 629.417015,436.234317 C621.427015,438.383317 613.077015,439.404317 604.847015,438.214317 C596.817015,437.053317 590.147015,433.434317 583.497015,428.974317 Z M584.749021,397.752898 L583.544345,396.977071 C580.366101,394.949229 576.721015,392.848517 572.827015,393.594317 C569.347015,394.264317 566.357015,397.034317 563.327015,398.744317 C556.677015,402.494317 549.217015,404.544317 541.607015,405.064317 C535.277015,405.494317 528.707015,404.724317 522.617015,402.844317 L522.827015,422.505317 L522.827015,422.505317 C525.057015,423.214317 527.367015,423.724317 529.797015,423.904317 C537.177015,424.454317 544.377015,422.684317 550.567015,418.614317 L553.69847,416.53537 C559.05698,413.014607 564.085051,410.22037 571.177015,411.505317 C578.197015,412.784317 584.087015,417.284317 589.827015,421.204317 L590.768252,421.836357 C597.360197,426.188098 604.042015,428.997499 612.127015,429.064317 C620.857015,429.133317 629.487015,426.704317 637.617015,423.714317 C645.687015,420.755317 653.357015,417.204317 661.987015,416.114317 C664.627015,415.784317 667.847015,415.684317 670.877015,416.204317 C671.277015,413.974317 671.657015,411.755317 672.017015,409.524317 C672.797015,404.734317 673.467015,399.954317 674.047015,395.164317 C658.737015,391.044317 644.597015,404.374317 630.377015,408.484317 C622.127015,410.864317 613.147015,410.835317 604.897015,408.534317 C597.263265,406.404036 591.262464,401.981995 584.749021,397.752898 Z M584.787015,364.644317 C581.517015,364.014317 578.287015,365.524317 575.507015,367.074317 C568.417015,371.005317 562.297015,376.474317 554.267015,378.544317 C543.937015,381.204317 532.637015,378.914317 522.377015,374.564317 C522.417015,380.633317 522.467015,386.704317 522.517015,392.774317 C524.447015,393.505317 526.427015,394.094317 528.447015,394.564317 C535.627015,396.204317 543.237015,395.984317 550.307015,393.914317 C557.517015,391.803317 563.047015,386.104317 570.277015,384.324317 C577.670106,382.498135 584.639052,386.050889 590.597059,390.089482 L592.390322,391.31296 C599.200793,395.934495 605.805682,399.950317 614.327015,400.734317 C623.337015,401.564317 631.167015,398.744317 639.217015,395.005317 L641.090891,394.137911 C651.282725,389.456531 664.512898,384.127258 674.687015,389.454317 C675.487015,381.894317 676.067015,374.335317 676.457015,366.764317 C675.057015,366.244317 673.607015,365.864317 671.937015,365.854317 C667.947015,365.835317 663.757015,367.094317 660.037015,368.404317 C651.907015,371.274317 644.337015,375.553317 636.287015,378.624317 C628.657015,381.544317 620.207015,383.064317 612.067015,381.755317 C604.527015,380.544317 598.867015,376.604317 593.657015,371.204317 L592.900245,370.406117 C590.615415,367.975217 588.171015,365.301317 584.787015,364.644317 Z M590.757015,336.574317 C586.987015,334.585317 582.397015,332.734317 578.037015,333.314317 C573.877015,333.862888 571.10464,336.685158 568.542916,339.701551 L567.15558,341.35275 C562.573029,346.774593 558.062364,351.333154 550.997015,353.564317 C543.677015,355.864317 535.917015,354.964317 529.107015,351.594317 C526.687015,350.394317 524.437015,348.904317 522.177015,347.434317 L522.297015,363.383317 L522.297015,363.383317 C526.817015,365.633317 531.417015,367.664317 536.467015,368.894317 C545.787015,371.164317 553.707015,369.484317 561.677015,364.344317 L562.513779,363.799632 C568.516852,359.857498 574.671904,355.163872 582.087015,354.724317 C589.323242,354.291298 594.753861,358.30285 599.519367,363.212751 L600.077015,363.794317 C606.087015,370.133317 612.157015,373.224317 621.097015,372.494317 C629.764368,371.785787 637.875917,367.959101 645.815681,364.662451 L646.537015,364.364317 C653.797015,361.383317 662.167015,358.314317 670.137015,359.454317 C672.047015,359.724317 674.517015,360.314317 676.717015,361.344317 C677.037015,353.883317 677.187015,346.414317 677.217015,338.934317 C672.687015,335.005317 665.637015,334.354317 659.967015,335.964317 C651.087015,338.484317 643.817015,344.984317 635.337015,348.514317 C627.817015,351.644317 619.977015,352.344317 612.307015,349.383317 C604.387015,346.324317 598.177015,340.494317 590.757015,336.574317 Z M676.717015,305.154317 C663.447015,305.614317 650.467015,314.244317 637.797015,317.534317 C623.643591,321.20692 612.092343,316.200389 599.484177,310.642324 L597.857015,309.925317 C591.387015,307.085317 584.437015,304.534317 577.267015,305.694317 C570.277015,306.835317 564.097015,310.704317 558.087015,314.204317 L556.935215,314.867515 C545.986699,321.100297 534.838541,325.366995 522.057015,324.303317 C522.127015,328.314317 522.097015,332.314317 522.107015,336.234317 C524.207015,337.434317 526.227015,338.794317 528.147015,340.034317 L528.836096,340.471047 C534.92969,344.281239 541.211197,346.78559 548.477015,344.434317 C555.497015,342.154317 558.797015,336.044317 563.617015,331.014317 C568.047015,326.394317 573.827015,323.585317 580.307015,323.854317 C587.277015,324.133317 593.867015,327.204317 599.627015,330.954317 C605.387015,334.704317 610.957015,339.553317 617.697015,341.434317 C632.817015,345.633317 645.767015,329.644317 660.067015,327.154317 C666.067015,326.104317 672.687015,327.434317 677.217015,331.053317 C677.167015,322.434317 676.977015,313.794317 676.717015,305.154317 Z M562.497015,301.534317 C560.627015,301.604317 558.757015,301.684317 556.887015,301.764317 C549.967015,302.064317 543.047015,302.404317 536.127015,302.794317 C531.337015,303.053317 525.447015,304.524317 520.747015,303.064317 C520.627015,303.544317 520.467015,304.005317 520.257015,304.454317 C520.967015,307.994317 521.407015,311.654317 521.677015,315.354317 C526.017015,315.824317 530.427015,315.664317 534.707015,314.774317 C544.977015,312.644317 553.317015,306.164317 562.497015,301.534317 Z M676.517015,298.564317 C651.247784,300.304701 625.784397,299.705959 600.473561,300.252955 L597.437015,300.324317 C597.317015,300.324317 597.197015,300.335317 597.077015,300.335317 C599.979515,301.460317 602.859515,302.747879 605.729671,304.059629 L608.597015,305.374317 C615.377015,308.494317 622.277015,311.044317 629.867015,310.494317 C637.997015,309.904317 645.657015,306.585317 653.257015,303.904317 C660.507015,301.344317 668.857015,299.624317 676.587015,300.744317 C676.567015,300.014317 676.547015,299.294317 676.517015,298.564317 Z" id="Ink" fill="#000"/></g></g><g id="Head" transform="translate(372.000000, 180.000000) scale(0.9978902953586498 1)"><g id="Head/Short 5" stroke="none" stroke-width="1" fill="none" fill-rule="evenodd"><path d="M242.041161,75.2596156 C298.821805,75.2596156 357.551668,119.271611 378.365264,147.356837 C395.864342,170.969555 405.286153,277.745152 405.286153,349.905008 C405.286153,364.996849 413.614596,393.445968 411.184129,407.881894 C402.277902,460.781042 363.475367,505.14576 286.676873,505.14576 C209.87838,505.14576 154.814935,474.704319 97.7325351,392.972519 C70.0358893,392.972519 56.6129701,371.732631 56.4152532,338.213866 C56.2871511,315.868022 65.1995229,300.630067 83.1523686,292.5 C76.7512999,204.313833 81.6113554,148.741029 97.7325351,125.781589 C121.914305,91.3424282 185.260516,75.2596156 242.041161,75.2596156 Z" id="Skin" fill="#edb98a"/><path d="M218.1465,56.5559 C253.9965,52.9259 289.1265,55.9759 324.4565,62.2869 C327.1565,62.7759 328.6865,64.5469 329.2555,66.6759 C345.8965,67.4359 362.5565,68.6569 379.1755,69.5669 C385.2065,69.8969 388.6255,75.8559 385.8755,81.2369 C385.3265,82.3059 384.7555,83.3459 384.1755,84.3859 L384.90416,84.145677 C389.903636,82.5418162 395.304128,81.751086 400.1755,84.2969 C406.3755,87.5369 408.8065,94.6859 407.4365,101.2659 C407.0855,102.9459 406.4965,104.5559 405.8265,106.1269 C407.1865,106.0369 408.5565,106.0669 409.9165,106.2469 C417.1565,107.2069 422.5365,112.7569 422.9165,120.1469 C423.4765,131.3059 416.2865,142.6269 407.8165,150.6159 C409.0455,153.1469 409.5165,156.1269 409.0055,159.1469 C407.9855,165.1169 403.5875,168.6919 398.4895,171.0239 C400.6155,177.7749 401.6205,184.8329 401.0275,192.0459 C400.8295,194.4539 398.7235,196.4429 396.5005,196.9309 C404.7865,219.7449 408.9805,244.2389 411.9965,268.1059 C414.1465,285.0869 415.2065,302.1669 415.3355,319.2759 C415.398611,327.000344 415.271302,334.73348 414.947253,342.459154 L414.8165,345.3559 C414.4165,353.7069 414.3965,362.4759 412.8965,370.7369 C418.0165,379.4459 420.0765,390.2569 420.9465,400.0159 C422.0265,412.0959 420.3165,424.5559 416.5055,436.0469 C402.1255,479.4659 358.7265,506.8659 315.1355,513.9869 C274.7865,520.5769 228.0965,511.7069 204.5165,475.0559 C204.1465,474.4759 204.9365,473.9969 205.3965,474.3769 C222.2665,488.0959 241.8355,494.2159 263.0965,497.1959 C299.8565,502.3369 341.1755,493.6159 370.6755,470.4969 C384.8355,459.3969 395.0455,443.2369 399.5365,425.8459 C401.8265,416.9569 402.6165,407.6859 401.7155,398.5369 C400.7955,389.2569 396.6865,381.3369 394.0965,372.5669 C393.2265,369.6059 394.1465,366.8559 395.9565,364.8969 C396.4655,357.7759 397.6665,350.5959 398.1255,343.4969 C398.6355,335.4259 398.9465,327.3559 399.0565,319.2759 C399.2665,302.5159 398.5665,285.7259 397.1565,269.0369 C394.5765,238.4759 387.7265,208.6569 383.7065,178.3559 C382.217833,179.690867 380.0844,180.239031 377.848178,179.072708 L377.6165,178.9459 L376.3965,178.2469 C376.3265,178.2469 376.2465,178.2569 376.1755,178.2659 C367.8265,179.0769 359.1665,177.9169 351.1665,175.4259 C342.7955,172.8269 335.0265,168.8269 328.0855,163.4969 C326.7665,170.1859 326.2155,176.9459 326.2065,183.7659 C326.1965,188.0259 321.6865,190.2369 318.1065,188.4169 C302.2365,180.3559 287.0765,171.0669 272.6865,160.6269 C271.0055,169.2369 269.3265,177.8459 267.6355,186.4659 C266.9865,189.7869 262.7555,191.1269 260.0455,189.5469 C249.2665,183.2759 239.9565,175.0669 232.3765,165.3059 C230.863167,168.1999 229.345389,171.093456 227.817241,173.980641 L225.5165,178.3059 C223.2465,182.5559 220.2065,187.2569 215.2365,188.6159 C209.9765,190.0559 205.5855,186.6469 203.8165,181.8859 C203.2765,180.4069 202.7765,178.8859 202.3165,177.3559 C197.8355,187.5869 192.7765,197.5869 187.0565,207.1269 C178.4765,221.4359 168.1755,234.1859 157.9065,247.2659 C154.7865,251.2369 149.4465,247.4459 149.0165,243.5869 C148.7665,241.3169 148.5565,239.0369 148.3755,236.7659 C142.3915,248.8419 136.1475,260.8049 129.3445,272.4209 L130.3185,276.2379 L130.3185,276.2379 C133.1255,287.5159 135.4565,298.8739 137.9905,310.2119 C138.8085,313.8699 136.8645,319.0999 132.5905,319.7229 C127.4845,320.4669 122.6535,323.0759 117.4235,321.2809 C111.7205,319.3229 110.5935,314.3939 107.9015,309.7219 C107.3645,308.7909 106.7395,307.9359 106.0675,307.1239 L105.8965,307.3459 L105.8965,307.3459 C105.4765,307.8969 104.4765,307.2969 104.7265,306.6669 L105.0195,305.9389 L105.0195,305.9389 C102.7065,303.4839 99.9385,301.4359 97.3935,299.2329 C91.3455,298.2139 84.5425,299.3299 80.3755,301.7869 C70.8855,307.3859 66.5265,318.9259 66.4365,329.5369 C66.3265,341.9569 70.1755,355.9169 76.6755,366.5369 C79.5365,371.2069 83.4565,375.4259 88.6355,377.4969 C93.7765,379.5559 99.3465,378.9169 104.5765,380.8559 C108.0365,382.1469 110.1665,385.9869 108.0765,389.4659 C107.9365,389.7069 107.7765,389.9259 107.6255,390.1569 L109.181019,392.221381 C110.250944,393.651456 111.3665,395.182567 112.4065,396.7759 C115.0665,399.8369 117.8665,402.7869 120.5765,405.7969 C125.5855,411.3459 130.4465,417.0469 135.3755,422.6759 C140.0265,427.9869 144.9465,432.9759 150.0165,437.8859 C154.8065,442.5369 160.7865,446.4459 165.1865,451.4069 C169.4655,456.2469 170.6265,464.6959 163.5855,467.4969 C155.796208,470.60315 148.900566,463.323034 143.657071,458.469499 L143.4365,458.2659 C133.8245,449.4209 125.1445,439.3129 118.2515,428.1839 C111.4235,432.8319 101.5475,433.2759 94.7485,428.6289 C91.1705,426.1839 88.4255,422.0749 87.0915,417.6049 C85.8335,417.8869 84.5765,418.0519 83.3505,418.0329 C82.7195,418.3989 82.0865,418.7549 81.4465,419.0869 C76.3755,421.7259 70.1465,420.5469 67.8265,414.9359 C65.7138913,409.84227 67.8908578,404.057449 69.7937681,399.149752 L70.1865,398.1359 C71.2665,395.3369 72.4565,392.2869 73.9365,389.4169 C69.8165,386.3169 66.2955,382.4659 63.3165,378.0869 C53.3065,363.3369 48.3065,341.7659 50.5165,324.1669 C51.8465,313.5469 56.8355,302.5469 65.0055,295.3859 L64.7065,294.6059 L64.7065,294.6059 C62.4165,288.7969 60.3355,282.9659 58.9865,276.8269 C57.4065,269.6469 56.6355,262.2069 55.9365,254.8969 C54.4565,239.4569 54.8565,223.6669 56.8265,208.2869 C60.5265,179.3369 69.9065,150.9169 86.5565,126.8269 C81.8355,121.1759 78.0965,114.5259 80.0455,106.8769 C80.9365,103.3659 82.9655,100.0369 86.0265,98.0259 C87.7155,96.9169 89.7265,96.7469 91.4165,95.8269 L91.9246563,95.5471104 C92.6669844,95.1139329 92.0991765,95.1598412 91.6565,93.1469 C89.9065,85.1059 91.3565,77.3369 100.2065,74.6669 C108.5365,72.1569 116.4165,77.4869 121.3465,83.8369 C134.2465,74.6859 151.2465,69.8969 166.1965,65.8269 C183.1965,61.2159 200.6355,58.3369 218.1465,56.5559 Z M78.8069,326.2562 C78.7459,319.7062 84.9559,315.6662 91.0669,316.7372 C95.1702571,317.451271 98.5933031,319.90018 101.807624,322.431371 L103.374768,323.671291 C107.288878,326.74416 111.782567,330.056933 114.1159,334.4072 C117.5359,340.8272 110.3069,349.4662 103.5569,344.9662 C98.9265667,341.8632 95.95861,336.891311 92.921411,332.272642 L92.6069,331.7962 C91.2269,329.7262 90.0169,327.5262 88.1259,325.8662 L87.7174162,325.508484 C87.0959496,324.978762 86.4285364,324.495291 85.6259,324.2662 C84.0775129,323.821039 81.2095629,324.444452 80.526766,326.287794 L80.4659,326.4762 C80.2159,327.4072 78.8169,327.2062 78.8069,326.2562 Z" id="Ink" fill="#000"/></g></g><g id="Face" transform="translate(531.000000, 366.000000) scale(1 1)" fill="#000"><g id="Face/Smile" stroke="none" stroke-width="1" fill="none" fill-rule="evenodd"><path d="M146.586567,240.926554 C139.864291,238.184203 133.866322,233.609781 129.481228,227.766254 C127.956691,225.734803 127.561405,223.589624 127.881219,221.627583 C128.240828,219.421406 129.546036,217.4219 131.326046,216.080693 C133.111571,214.735331 135.345035,214.071832 137.504329,214.410065 C139.380629,214.703969 141.248396,215.731287 142.726594,217.861908 L143.035427,218.287981 C145.642441,221.814933 149.039621,224.708755 152.91047,226.573991 C156.641339,228.371775 160.813939,229.21087 165.131898,228.722919 C173.355732,227.793938 179.024012,223.346401 185.048774,217.30672 C185.795561,216.544195 186.542826,215.757766 187.293714,214.958678 C187.767915,214.234308 188.425986,213.768756 189.156624,213.524488 C189.967867,213.253272 190.885573,213.268617 191.726122,213.56195 C192.536835,213.844871 193.261572,214.380994 193.747527,215.094538 C194.209389,215.772704 194.47125,216.610486 194.386283,217.574143 C193.834826,223.833283 190.562474,229.419299 185.914235,233.805502 C180.751772,238.67694 173.908551,242.047034 167.465957,243.229031 C160.36811,244.531047 153.135593,243.598228 146.586567,240.926554 L146.586567,240.926554 Z M170.814304,144.367155 C178.365682,148.9572 189.871664,159.660291 181.748119,171.039573 C172.185929,181.073062 158.418535,169.568982 151.634201,164.366134 C145.343449,160.333898 138.275437,170.704507 144.112,175.412823 C193.135736,211.708059 213.030606,145.567387 174.633685,138.970386 C170.406047,138.243425 168.835891,142.947174 170.814304,144.367155 Z M82.9633,102.1464 C83.7976284,91.7901242 99.5703,89.4384 101.1393,99.6864 C102.5443,108.8664 100.8903,117.2994 96.7553,125.5644 C92.8043,133.4604 82.8737826,129.776544 82.1227826,122.586544 C81.1160984,112.948648 82.4443,108.588596 82.9633,102.1464 Z M203.027,97.5615 C205.226,94.6815 208.401,92.7155 212.205,93.8265 C224.09,97.2995 220.587,114.1725 216.413,122.3855 C214.145,126.8455 206.814,127.9765 203.501,124.0495 C198.101,117.6455 195.515,104.8565 202.38,98.5485 C202.566,98.2225 202.773,97.8935 203.027,97.5615 Z M96.5879,56.8305 L98.465271,56.501905 C104.27307,55.49746 111.4944,54.5323 115.6029,59.2015 C117.7819,61.6775 118.5319,66.2795 115.6029,68.6495 C110.4509,72.8195 104.7549,71.2035 98.5809,71.5565 C93.4929,71.8485 88.6029,72.6905 83.7019,74.0915 C72.9499,77.1645 64.1889,82.7745 55.0059,88.9345 C53.8009,89.7425 52.5709,88.2015 53.1459,87.0745 C58.4469,76.6915 68.7199,68.1625 79.0099,62.9635 C84.5019,60.1885 90.5119,57.8865 96.5879,56.8305 Z M192.192876,52.1793876 L193.629806,52.4734684 C209.267042,55.742077 229.583473,62.2713911 236.988459,77.6308459 C237.270623,79.8027272 236.97249,80.2682047 236.730054,80.5723213 L236.649336,80.6735209 C236.449568,80.9332186 236.290169,81.2912104 235.348782,81.5868073 C235.087547,81.5245653 234.823712,81.4586426 234.557082,81.3887687 C231.162766,80.499243 228.477205,79.2737961 225.877298,78.0022488 L223.058339,76.6134493 C219.787784,75.0098309 216.488352,73.4645766 212.991711,72.3238115 C205.52958,69.8898666 197.854137,68.1753043 190.059777,67.259767 C188.37041,67.0615005 186.743655,66.4913394 185.460262,65.5141761 C184.242065,64.5866523 183.311441,63.3024737 182.887128,61.5955207 C182.33722,59.3864508 182.495251,57.7140037 183.680513,55.7210991 C184.571756,54.2244705 185.846982,53.1871113 187.311265,52.5914244 C188.804038,51.9841473 190.503545,51.840982 192.192876,52.1793876 Z" id="Ink" fill="#000"/></g></g><g id="Beard" transform="translate(494.999934, 517.999659) scale(1 1)" fill="#000"><g id="Beard/None" stroke="none" stroke-width="1" fill="none" fill-rule="evenodd" fill-opacity="0"/></g><g id="Mask" transform="translate(400.000000, 480.000000) scale(1 1)" fill="#000"><g id="Mask/None" stroke="none" stroke-width="1" fill="none" fill-rule="evenodd" fill-opacity="0"/></g><g id="Accessories" transform="translate(419.000000, 421.000000) scale(1 1)" fill="#000"><g id="Accessories/None" stroke="none" stroke-width="1" fill="none" fill-rule="evenodd" fill-opacity="0"/></g></g></svg>